<?xml version="1.0" standalone="no"?>
<svg version="1.1" xmlns="http://www.w3.org/2000/svg" width="160" height="160" viewBox="0 0 160 160">
<defs><mask id="cut" maskUnits="userSpaceOnUse" x="0" y="0" width="160" height="160"><rect width="160" height="160" fill="#fff"/><mask id="m" maskUnits="userSpaceOnUse" x="0" y="0" width="160" height="160"><rect width="160" height="160" fill="#fff"/><path d="M35.3 98C37.8 94.5 39.8 90 40.5 85.5A32.05 26.25 0 1 1 51 94.2C47.5 96.6 41.5 98.2 35.3 98Z" fill="#000" stroke="#000" stroke-width="8" stroke-linejoin="round"/></mask><path d="M124.6 118.6C122.2 116.6 120.2 112.6 119.1 108A31.5 25 0 1 0 108.5 115.8C113 117.8 118.5 118.9 124.6 118.6Z" fill="#000" mask="url(#m)"/><path d="M35.3 98C37.8 94.5 39.8 90 40.5 85.5A32.05 26.25 0 1 1 51 94.2C47.5 96.6 41.5 98.2 35.3 98Z" fill="#000"/></mask></defs>
<circle cx="80" cy="80" r="80" fill="#000" mask="url(#cut)"/>
</svg>
